<?xml version="1.0" encoding="utf-8"?>
<!-- Generator: Adobe Illustrator 15.0.0, SVG Export Plug-In . SVG Version: 6.00 Build 0)  -->
<!DOCTYPE svg PUBLIC "-//W3C//DTD SVG 1.1//EN" "http://www.w3.org/Graphics/SVG/1.1/DTD/svg11.dtd">
<svg version="1.1" id="Layer_1" xmlns="http://www.w3.org/2000/svg" xmlns:xlink="http://www.w3.org/1999/xlink" x="0px" y="0px"
	 width="280px" height="69px" viewBox="-10 -2 280 69" enable-background="new -10 -2 280 69" xml:space="preserve">
<g>
	<path fill="#FFFFFF" d="M63.833,2.744c0-0.418,0.333-0.794,0.791-0.794h9.54c4.958,0,8.79,3.346,8.79,7.734
		c0,3.219-2.626,5.728-4.583,6.647c2.208,0.71,5.417,2.969,5.417,6.815c0,4.681-4,8.068-9.081,8.068H64.624
		c-0.458,0-0.791-0.377-0.791-0.794V2.744z M73.663,14.241c2.127,0,3.583-1.672,3.583-3.762s-1.457-3.554-3.583-3.554h-4.457v7.316
		H73.663z M74.247,26.281c2.083,0,3.749-1.63,3.749-3.804c0-2.091-2.083-3.637-4.249-3.637h-4.54v7.44H74.247z"/>
	<path fill="#FFFFFF" d="M90.197,2.744c0-0.418,0.334-0.794,0.791-0.794h11.916c4.999,0,9.08,4.014,9.08,8.988
		c0,3.846-2.54,6.983-6.165,8.446l5.708,10.62c0.292,0.543,0,1.212-0.709,1.212h-4.375c-0.376,0-0.583-0.208-0.667-0.377
		l-5.54-11.079h-4.624v10.661c0,0.418-0.375,0.794-0.792,0.794h-3.833c-0.457,0-0.791-0.377-0.791-0.794V2.744z M102.442,15.286
		c2.21,0,4.125-1.922,4.125-4.263c0-2.216-1.915-4.056-4.125-4.056h-6.79v8.319H102.442z"/>
	<path fill="#FFFFFF" d="M115.418,30.128l12.955-28.136c0.125-0.25,0.334-0.461,0.709-0.461h0.415c0.418,0,0.584,0.209,0.709,0.461
		l12.832,28.136c0.25,0.544-0.084,1.087-0.708,1.087h-3.624c-0.625,0-0.917-0.251-1.209-0.835l-2.041-4.517h-12.455l-2.043,4.517
		c-0.165,0.417-0.541,0.835-1.206,0.835h-3.625C115.503,31.215,115.168,30.673,115.418,30.128z M133.415,21.223l-4.167-9.197h-0.124
		l-4.082,9.197H133.415z"/>
	<path fill="#FFFFFF" d="M147.433,2.285c0-0.419,0.374-0.753,0.789-0.753h1.042l17.329,18.48h0.042V2.744
		c0-0.418,0.333-0.794,0.794-0.794h3.831c0.416,0,0.791,0.376,0.791,0.794V30.88c0,0.419-0.376,0.752-0.791,0.752h-1.001
		l-17.411-19.188h-0.043v17.977c0,0.418-0.332,0.794-0.791,0.794h-3.791c-0.416,0-0.79-0.377-0.79-0.794V2.285L147.433,2.285z"/>
	<path fill="#FFFFFF" d="M180.044,2.744c0-0.418,0.334-0.794,0.749-0.794h9.874c8.038,0,14.62,6.564,14.62,14.591
		c0,8.112-6.582,14.675-14.62,14.675h-9.874c-0.415,0-0.749-0.377-0.749-0.794V2.744L180.044,2.744z M190.168,26.115
		c5.416,0,9.373-4.097,9.373-9.574c0-5.435-3.96-9.533-9.373-9.533h-4.75v19.107H190.168z"/>
	<path fill="#FFFFFF" d="M224.412,1.531c8.333,0,14.996,6.731,14.996,15.093s-6.665,15.008-14.996,15.008
		s-14.954-6.646-14.954-15.008S216.079,1.531,224.412,1.531z M224.412,26.198c5.249,0,9.582-4.305,9.582-9.573
		s-4.333-9.658-9.582-9.658c-5.248,0-9.541,4.39-9.541,9.658S219.164,26.198,224.412,26.198z"/>
	<path fill="#FFFFFF" d="M245.444,2.285c0-0.419,0.374-0.753,0.791-0.753h1.039l17.331,18.48h0.041V2.744
		c0-0.418,0.333-0.794,0.793-0.794h3.832c0.416,0,0.791,0.376,0.791,0.794V30.88c0,0.419-0.376,0.752-0.791,0.752h-1l-17.412-19.188
		h-0.04v17.977c0,0.418-0.335,0.794-0.793,0.794h-3.791c-0.417,0-0.79-0.377-0.79-0.794L245.444,2.285L245.444,2.285z"/>
</g>
<g>
	<path fill="#FFFFFF" d="M63.833,38.59c0-0.337,0.301-0.641,0.637-0.641h2.251c0.37,0,0.638,0.302,0.638,0.641v13.919
		c0,3.369,2.147,5.999,5.575,5.999c3.458,0,5.641-2.594,5.641-5.932V38.59c0-0.337,0.27-0.641,0.639-0.641h2.25
		c0.335,0,0.638,0.302,0.638,0.641v14.154c0,5.123-3.861,9.133-9.167,9.133c-5.272,0-9.102-4.01-9.102-9.133L63.833,38.59
		L63.833,38.59z"/>
	<path fill="#FFFFFF" d="M90.435,38.219c0-0.335,0.302-0.604,0.638-0.604h0.838l14.576,16.917h0.033V38.59
		c0-0.337,0.268-0.641,0.637-0.641h2.15c0.335,0,0.638,0.302,0.638,0.641v22.681c0,0.337-0.302,0.606-0.638,0.606h-0.875
		L93.86,44.488h-0.034v16.413c0,0.338-0.267,0.641-0.638,0.641h-2.116c-0.336,0-0.638-0.303-0.638-0.641V38.219z"/>
	<path fill="#FFFFFF" d="M118.511,38.59c0-0.337,0.303-0.641,0.64-0.641h2.215c0.337,0,0.64,0.302,0.64,0.641v22.312
		c0,0.338-0.302,0.641-0.64,0.641h-2.215c-0.336,0-0.64-0.303-0.64-0.641V38.59z"/>
	<path fill="#FFFFFF" d="M127.575,38.826c-0.202-0.438,0.067-0.877,0.571-0.877h2.386c0.268,0,0.503,0.205,0.57,0.371l7.388,16.686
		h0.201l7.39-16.686c0.066-0.166,0.268-0.371,0.569-0.371h2.385c0.504,0,0.773,0.438,0.57,0.877l-10.311,22.681
		c-0.101,0.202-0.301,0.37-0.57,0.37h-0.335c-0.236,0-0.471-0.168-0.571-0.37L127.575,38.826z"/>
	<path fill="#FFFFFF" d="M155.234,38.59c0-0.337,0.27-0.641,0.64-0.641h13.431c0.37,0,0.64,0.302,0.64,0.641v1.886
		c0,0.338-0.27,0.644-0.64,0.644h-10.611v6.876h8.967c0.336,0,0.64,0.301,0.64,0.638v1.889c0,0.371-0.304,0.641-0.64,0.641h-8.967
		v7.247h10.611c0.37,0,0.64,0.301,0.64,0.638v1.857c0,0.335-0.27,0.641-0.64,0.641h-13.431c-0.37,0-0.64-0.306-0.64-0.641V38.59z"/>
	<path fill="#FFFFFF" d="M176.871,38.59c0-0.337,0.27-0.641,0.639-0.641h9.135c4.029,0,7.32,3.203,7.32,7.213
		c0,3.101-2.049,5.663-4.97,6.843l4.602,8.56c0.235,0.438,0,0.978-0.57,0.978h-2.62c-0.268,0-0.472-0.168-0.537-0.303l-4.466-8.931
		h-5.07v8.596c0,0.335-0.303,0.641-0.639,0.641h-2.185c-0.367,0-0.637-0.306-0.637-0.641V38.59H176.871z M186.376,49.409
		c2.182,0,4.097-1.853,4.097-4.179c0-2.192-1.913-4.011-4.097-4.011h-5.977v8.189H186.376z"/>
	<path fill="#FFFFFF" d="M199.893,58.139c0.304-0.438,0.571-0.943,0.874-1.38c0.302-0.44,0.773-0.575,1.143-0.271
		c0.202,0.168,2.788,2.324,5.373,2.324c2.316,0,3.796-1.414,3.796-3.132c0-2.022-1.747-3.304-5.072-4.687
		c-3.424-1.449-6.111-3.236-6.111-7.144c0-2.63,2.015-6.235,7.354-6.235c3.359,0,5.876,1.753,6.214,1.987
		c0.268,0.169,0.537,0.641,0.202,1.146c-0.269,0.404-0.569,0.877-0.841,1.281c-0.268,0.438-0.704,0.641-1.175,0.337
		c-0.235-0.135-2.585-1.686-4.532-1.686c-2.821,0-3.796,1.787-3.796,3.034c0,1.92,1.477,3.1,4.264,4.248
		c3.896,1.583,7.222,3.438,7.222,7.549c0,3.504-3.124,6.368-7.489,6.368c-4.099,0-6.682-2.156-7.219-2.662
		C199.794,58.948,199.558,58.71,199.893,58.139z"/>
	<path fill="#FFFFFF" d="M221.6,38.59c0-0.337,0.302-0.641,0.639-0.641h2.216c0.336,0,0.639,0.302,0.639,0.641v22.312
		c0,0.338-0.301,0.641-0.639,0.641h-2.216c-0.337,0-0.639-0.303-0.639-0.641V38.59z"/>
	<path fill="#FFFFFF" d="M236.859,41.119h-5.475c-0.367,0-0.637-0.304-0.637-0.644V38.59c0-0.337,0.27-0.641,0.637-0.641h14.442
		c0.368,0,0.636,0.302,0.636,0.641v1.886c0,0.338-0.268,0.644-0.636,0.644h-5.475v19.782c0,0.338-0.303,0.641-0.639,0.641h-2.216
		c-0.336,0-0.639-0.303-0.639-0.641V41.119z"/>
	<path fill="#FFFFFF" d="M258.487,50.185l-7.859-11.258c-0.268-0.44,0-0.978,0.538-0.978h2.487c0.268,0,0.434,0.169,0.535,0.302
		l6.077,8.596l6.081-8.596c0.1-0.133,0.3-0.302,0.537-0.302h2.519c0.536,0,0.806,0.537,0.536,0.978l-7.959,11.224v10.751
		c0,0.335-0.302,0.641-0.637,0.641h-2.219c-0.369,0-0.637-0.306-0.637-0.641V50.185L258.487,50.185z"/>
</g>
<path fill="#FFFFFF" d="M46.817-2h-57.021v34.501C-10.187,45.726-2.828,54.4,3.344,59.349c6.575,5.271,13.663,7.828,14.91,7.881
	l0.052,0.003l0.053-0.003c0.102-0.004,0.264-0.022,0.481-0.071c0.136-0.029,0.307-0.074,0.509-0.135
	c2.718-0.797,9.432-3.684,15.394-8.909c0.214-0.188,0.426-0.38,0.634-0.569l0.001,0.002c4.085-3.729,7.12-8.003,9.032-12.673
	l-0.002-0.002c1.588-3.876,2.404-8.024,2.408-12.368L46.817-2L46.817-2z"/>
<polygon fill="#EDB31F" points="18.314,27.969 18.313,27.969 18.313,27.977 "/>
<path fill="#002A4E" d="M41.084,1.642c-1.657,1.146-4.541-0.035-6.398,2.018c-1.859-2.052-4.743-0.872-6.401-2.018
	c-0.152,0.311-0.668,0.867-1.245,0.688c0.089,2.33,0.461,9.734,0.461,9.734s6.616,1.941,7.185,2.112
	c0.566-0.171,7.181-2.112,7.181-2.112s0.371-7.404,0.46-9.734C41.753,2.509,41.238,1.952,41.084,1.642z M34.262,12.708
	c-1.271-1.559-4.167-0.587-5.615-1.968c-0.208-5.762-0.368-4.846-0.289-8.071c1.354,0.918,4.109,0.008,5.904,1.761V12.708z
	 M40.725,10.74c-1.449,1.381-4.346,0.409-5.618,1.968v-8.28c1.797-1.753,4.552-0.842,5.906-1.761
	C41.092,5.894,40.933,4.978,40.725,10.74z"/>
<path fill="#002A4E" d="M8.329,1.642C6.671,2.787,3.788,1.607,1.93,3.659C0.071,1.607-2.812,2.788-4.47,1.642
	C-4.623,1.952-5.137,2.509-5.713,2.33c0.089,2.33,0.459,9.734,0.459,9.734s6.616,1.941,7.184,2.112
	c0.566-0.171,7.184-2.112,7.184-2.112S9.484,4.66,9.573,2.33C8.999,2.509,8.482,1.952,8.329,1.642z M1.506,12.708
	c-1.271-1.559-4.167-0.587-5.617-1.968c-0.208-5.762-0.367-4.846-0.287-8.072c1.354,0.918,4.108,0.007,5.903,1.761V12.708z
	 M7.969,10.74c-1.448,1.381-4.345,0.409-5.617,1.968v-8.28c1.796-1.753,4.551-0.842,5.905-1.761
	C8.336,5.894,8.178,4.978,7.969,10.74z"/>
<g>
	<path fill="#002A4E" d="M43.427,44.885l0.133-0.329c0.135-0.329,0.257-0.664,0.38-0.994L18.312,6.037v0.001l-0.004-0.006
		L-7.33,43.573c2.104,5.665,5.611,10.033,9.074,13.238L18.31,32.538L34.876,56.81l0.176-0.16
		C38.782,53.166,41.597,49.211,43.427,44.885z"/>
	<rect x="35.787" y="58.139" fill="#002A4E" width="0" height="0.003"/>
</g>
<g>
	<g>
		<path fill="#FDB913" d="M13.544,64.6l0.001-0.175c0-0.057-0.002-0.113-0.002-0.173c-0.002-0.113-0.004-0.229-0.007-0.343
			c-0.004-0.116-0.008-0.232-0.015-0.346c-0.002-0.114-0.011-0.228-0.019-0.342c-0.003-0.057-0.007-0.113-0.011-0.171
			c-0.003-0.057-0.007-0.113-0.013-0.17c-0.011-0.114-0.021-0.226-0.03-0.34l-0.009-0.084l-0.008-0.084
			c-0.007-0.058-0.013-0.112-0.019-0.169c-0.02-0.177-0.043-0.352-0.067-0.524c0.042-0.021,0.082-0.045,0.122-0.07
			c0.054-0.031,0.107-0.069,0.159-0.111c0.052-0.04,0.101-0.084,0.147-0.133c0.094-0.097,0.181-0.206,0.257-0.333
			c0.039-0.063,0.076-0.128,0.109-0.198c0.032-0.067,0.062-0.143,0.088-0.219c0.053-0.151,0.095-0.312,0.117-0.472
			c0.012-0.08,0.021-0.163,0.025-0.247c0.005-0.082,0.006-0.164,0.003-0.246c-0.003-0.085-0.009-0.167-0.02-0.249
			s-0.021-0.164-0.039-0.247c-0.033-0.164-0.079-0.324-0.136-0.479c-0.221,0.113-0.423,0.282-0.59,0.495
			c-0.041,0.053-0.081,0.109-0.119,0.168c-0.037,0.06-0.072,0.12-0.106,0.184c-0.068,0.131-0.128,0.268-0.175,0.417
			c-0.037,0.112-0.064,0.224-0.088,0.337c-0.002-0.015-0.005-0.024-0.008-0.035c-0.045-0.222-0.098-0.44-0.15-0.657
			c0.043-0.025,0.084-0.056,0.124-0.087c0.102-0.078,0.194-0.171,0.279-0.276c0.083-0.107,0.158-0.226,0.223-0.357
			c0.062-0.133,0.113-0.278,0.152-0.435c0.009-0.04,0.018-0.08,0.026-0.118c0.006-0.042,0.013-0.08,0.019-0.12
			c0.01-0.08,0.018-0.162,0.021-0.244s0.004-0.164,0-0.249c-0.004-0.08-0.013-0.162-0.024-0.246
			c-0.011-0.082-0.026-0.165-0.042-0.247c-0.02-0.08-0.041-0.16-0.066-0.24c-0.025-0.08-0.053-0.157-0.083-0.235
			c-0.03-0.076-0.067-0.154-0.104-0.226c-0.104,0.065-0.201,0.147-0.291,0.24c-0.044,0.046-0.087,0.095-0.127,0.147
			c-0.041,0.053-0.079,0.107-0.115,0.164c-0.146,0.231-0.252,0.502-0.32,0.81c-0.026,0.122-0.044,0.246-0.055,0.368
			c-0.043-0.133-0.087-0.268-0.133-0.397c-0.016-0.047-0.032-0.093-0.047-0.14c-0.017-0.046-0.035-0.093-0.051-0.139
			c-0.001-0.007-0.003-0.011-0.006-0.015c0.142-0.112,0.268-0.249,0.371-0.413c0.075-0.114,0.135-0.24,0.183-0.38
			c0.049-0.137,0.088-0.288,0.108-0.448c0.085-0.644-0.097-1.33-0.454-1.889c-0.195,0.158-0.354,0.362-0.473,0.607
			c-0.06,0.122-0.111,0.255-0.149,0.394c-0.019,0.069-0.037,0.144-0.049,0.215c-0.007,0.038-0.013,0.074-0.019,0.114
			c-0.005,0.038-0.011,0.075-0.016,0.113c-0.013,0.135-0.019,0.268-0.015,0.403c-0.003-0.007-0.004-0.011-0.006-0.016
			C11.766,56.16,11.729,56.08,11.692,56c-0.036-0.082-0.071-0.162-0.11-0.24c-0.03-0.062-0.062-0.124-0.091-0.188
			c0.041-0.04,0.082-0.082,0.12-0.126c0.041-0.051,0.08-0.104,0.115-0.158c0.037-0.055,0.07-0.111,0.099-0.173
			c0.06-0.12,0.107-0.253,0.142-0.396c0.018-0.069,0.031-0.146,0.042-0.221c0.009-0.074,0.015-0.154,0.016-0.236
			c0.018-0.646-0.234-1.314-0.649-1.829c-0.176,0.175-0.314,0.398-0.407,0.653c-0.091,0.253-0.146,0.546-0.142,0.855
			c0,0.146,0.009,0.289,0.029,0.428c-0.055-0.095-0.109-0.188-0.162-0.278c-0.082-0.133-0.16-0.261-0.235-0.384
			c0.04-0.046,0.078-0.097,0.113-0.149c0.07-0.107,0.129-0.223,0.177-0.348c0.046-0.126,0.082-0.266,0.101-0.411
			c0.02-0.145,0.021-0.297,0.009-0.461c-0.006-0.08-0.017-0.16-0.031-0.242c-0.016-0.078-0.035-0.158-0.057-0.236
			c-0.045-0.158-0.102-0.313-0.175-0.464c-0.037-0.073-0.077-0.147-0.118-0.219c-0.021-0.036-0.043-0.071-0.066-0.107
			c-0.022-0.034-0.047-0.067-0.071-0.102c-0.049-0.069-0.099-0.133-0.153-0.198c-0.026-0.031-0.054-0.062-0.081-0.095l-0.043-0.046
			l-0.042-0.044c-0.156,0.193-0.271,0.43-0.337,0.695c-0.033,0.13-0.054,0.27-0.062,0.415c-0.01,0.146-0.007,0.295,0.01,0.451
			C9.649,52.3,9.677,52.451,9.715,52.6c-0.043-0.062-0.084-0.116-0.121-0.171c-0.045-0.063-0.091-0.118-0.131-0.173v-0.002
			c-0.021-0.104-0.05-0.207-0.086-0.312c-0.023-0.071-0.055-0.143-0.087-0.215c-0.033-0.071-0.07-0.144-0.109-0.213
			c-0.02-0.035-0.04-0.069-0.062-0.105c-0.022-0.033-0.045-0.067-0.069-0.103c-0.047-0.065-0.099-0.133-0.153-0.198
			c-0.027-0.032-0.055-0.065-0.083-0.095c-0.028-0.032-0.058-0.062-0.087-0.089c-0.059-0.059-0.12-0.111-0.182-0.164
			c-0.031-0.023-0.062-0.051-0.094-0.074c-0.031-0.023-0.062-0.048-0.096-0.067c-0.066-0.044-0.132-0.084-0.2-0.122
			c-0.067-0.036-0.135-0.069-0.203-0.102c-0.068-0.031-0.138-0.055-0.207-0.077c-0.139-0.045-0.278-0.076-0.415-0.093
			c0.016,0.137,0.043,0.277,0.081,0.415c0.02,0.069,0.043,0.137,0.067,0.206c0.023,0.069,0.05,0.14,0.081,0.204
			c0.029,0.068,0.062,0.136,0.1,0.203c0.019,0.031,0.035,0.067,0.054,0.099c0.02,0.034,0.039,0.067,0.059,0.099
			c0.041,0.065,0.084,0.129,0.13,0.194c0.023,0.029,0.047,0.062,0.071,0.093c0.023,0.031,0.048,0.063,0.074,0.093
			c0.051,0.061,0.105,0.12,0.16,0.177c0.027,0.025,0.055,0.055,0.083,0.08c0.028,0.027,0.056,0.055,0.084,0.078
			c0.056,0.053,0.114,0.102,0.175,0.147c0.059,0.047,0.122,0.089,0.183,0.129c0.068,0.046,0.136,0.086,0.207,0.126
			c0.012,0.017,0.025,0.034,0.04,0.053c0.037,0.053,0.081,0.107,0.124,0.171c0.025,0.033,0.049,0.067,0.074,0.105
			c-0.104-0.063-0.212-0.118-0.328-0.162c-0.141-0.053-0.281-0.091-0.417-0.112c-0.137-0.022-0.273-0.027-0.404-0.019
			c-0.261,0.019-0.501,0.095-0.717,0.217c0.302,0.468,0.735,0.854,1.274,1.077c0.134,0.057,0.272,0.097,0.405,0.128
			c0.134,0.03,0.267,0.049,0.398,0.055c0.131,0.005,0.261-0.002,0.385-0.022c0.051-0.009,0.102-0.02,0.151-0.03
			c0.074,0.121,0.15,0.249,0.23,0.384c0.04,0.069,0.081,0.142,0.123,0.215c-0.093-0.067-0.19-0.13-0.292-0.186
			c-0.271-0.137-0.539-0.208-0.802-0.215c-0.262-0.008-0.511,0.04-0.736,0.14c0.252,0.495,0.642,0.925,1.153,1.205
			c0.065,0.034,0.13,0.067,0.195,0.095c0.064,0.029,0.129,0.055,0.194,0.076c0.13,0.044,0.261,0.075,0.392,0.095
			c0.066,0.011,0.131,0.017,0.194,0.019c0.063,0.007,0.127,0.007,0.191,0.003c0.048-0.005,0.097-0.009,0.145-0.016
			c0.03,0.065,0.06,0.127,0.089,0.192c0.037,0.075,0.069,0.153,0.105,0.231c0.028,0.065,0.057,0.129,0.086,0.194
			c-0.083-0.072-0.166-0.138-0.257-0.198c-0.03-0.021-0.062-0.04-0.094-0.062c-0.032-0.017-0.063-0.035-0.096-0.051
			c-0.065-0.033-0.13-0.062-0.194-0.086c-0.13-0.051-0.259-0.087-0.389-0.104c-0.259-0.035-0.514-0.013-0.748,0.063
			c0.198,0.519,0.542,0.986,1.022,1.319c0.12,0.082,0.241,0.153,0.366,0.211c0.125,0.059,0.253,0.103,0.38,0.137
			c0.172,0.044,0.345,0.065,0.517,0.063c0.002,0.006,0.004,0.015,0.006,0.021c0.016,0.044,0.032,0.089,0.047,0.135
			c0.015,0.045,0.029,0.091,0.045,0.135c0.037,0.112,0.072,0.222,0.108,0.335c-0.018-0.019-0.034-0.035-0.051-0.055
			c-0.053-0.055-0.109-0.105-0.168-0.153c-0.23-0.192-0.486-0.316-0.738-0.382c-0.063-0.017-0.126-0.027-0.188-0.035
			c-0.064-0.009-0.127-0.016-0.19-0.016c-0.126-0.002-0.25,0.011-0.371,0.034c0.141,0.537,0.434,1.039,0.877,1.42
			c0.11,0.095,0.225,0.18,0.344,0.247c0.118,0.071,0.238,0.131,0.36,0.177c0.123,0.047,0.247,0.08,0.374,0.099
			c0.042,0.007,0.084,0.013,0.125,0.018c0.05,0.206,0.096,0.417,0.138,0.63c-0.056-0.076-0.117-0.147-0.182-0.213
			c-0.107-0.109-0.22-0.2-0.335-0.276c-0.057-0.037-0.117-0.071-0.178-0.103c-0.062-0.03-0.122-0.058-0.183-0.078
			c-0.246-0.091-0.497-0.12-0.743-0.097c0.085,0.55,0.323,1.078,0.723,1.506c0.05,0.053,0.102,0.104,0.156,0.15
			c0.054,0.048,0.106,0.092,0.161,0.133c0.11,0.084,0.225,0.155,0.342,0.212c0.059,0.03,0.119,0.058,0.179,0.078
			c0.059,0.023,0.12,0.045,0.181,0.062c0.038,0.011,0.076,0.021,0.114,0.027c0.023,0.171,0.044,0.341,0.06,0.517
			c0.005,0.055,0.012,0.109,0.017,0.162l0.008,0.082l0.006,0.08c0.008,0.109,0.019,0.217,0.026,0.329
			c0.005,0.055,0.007,0.109,0.012,0.164c0.002,0.055,0.005,0.109,0.007,0.164c0.006,0.111,0.013,0.222,0.015,0.333
			c0.004,0.109,0.006,0.219,0.011,0.331c0.001,0.111,0.001,0.224,0.003,0.333c0,0.057,0.001,0.113,0,0.166l-0.002,0.169
			c-0.001,0.019-0.001,0.038-0.001,0.057c0.246,0.12,0.488,0.234,0.723,0.344c0-0.017,0-0.031,0.001-0.049
			C13.543,64.83,13.543,64.714,13.544,64.6z"/>
		<path fill="#FDB913" d="M19.685,56.735c0.319-0.67,0.438-1.477,0.376-2.246c-0.485,0.116-0.944,0.521-1.264,1.19
			c-0.059,0.122-0.11,0.251-0.156,0.382l-0.003-0.885c0.404-0.171,0.776-0.551,1.048-1.119c0.319-0.666,0.438-1.474,0.376-2.244
			c-0.485,0.115-0.944,0.521-1.264,1.19c-0.063,0.133-0.118,0.271-0.166,0.415l-0.003-0.915c0.408-0.168,0.785-0.548,1.059-1.121
			c0.319-0.668,0.438-1.475,0.375-2.246c-0.485,0.118-0.944,0.521-1.264,1.19c-0.068,0.144-0.127,0.293-0.177,0.447l-0.005-0.942
			c0.413-0.166,0.793-0.546,1.07-1.125c0.319-0.668,0.438-1.476,0.375-2.246c-0.485,0.118-0.944,0.521-1.264,1.19
			c-0.073,0.153-0.135,0.316-0.188,0.48l-0.004-0.97c0.416-0.166,0.801-0.548,1.08-1.129c0.319-0.67,0.438-1.478,0.375-2.247
			c-0.485,0.116-0.944,0.521-1.264,1.188c-0.078,0.165-0.145,0.338-0.199,0.517l-0.002-0.535c0.17-0.455,0.27-0.988,0.27-1.558
			c0-0.836-0.214-1.595-0.557-2.149c-0.343,0.555-0.556,1.313-0.556,2.149c0,0.535,0.087,1.037,0.239,1.476l-0.002,0.524
			c-0.048-0.146-0.105-0.286-0.17-0.424c-0.318-0.665-0.778-1.07-1.264-1.188c-0.063,0.77,0.057,1.577,0.377,2.247
			c0.272,0.568,0.646,0.946,1.052,1.119l-0.003,0.896c-0.046-0.136-0.1-0.268-0.161-0.396c-0.318-0.668-0.778-1.072-1.264-1.188
			c-0.062,0.769,0.057,1.576,0.378,2.244c0.27,0.566,0.639,0.942,1.042,1.114l-0.003,0.877c-0.044-0.126-0.095-0.251-0.152-0.371
			c-0.318-0.668-0.778-1.07-1.264-1.19c-0.062,0.771,0.057,1.578,0.378,2.246c0.269,0.561,0.634,0.938,1.033,1.113l-0.002,0.854
			c-0.042-0.118-0.089-0.236-0.144-0.346c-0.318-0.67-0.778-1.073-1.264-1.19c-0.062,0.771,0.057,1.578,0.378,2.244
			c0.267,0.561,0.629,0.931,1.024,1.108L17.958,56c-0.04-0.111-0.085-0.217-0.135-0.322c-0.318-0.668-0.778-1.072-1.264-1.19
			c-0.062,0.771,0.057,1.578,0.378,2.246c0.264,0.555,0.623,0.925,1.015,1.104l-0.029,8.838c0.184,0.046,0.315,0.071,0.387,0.073
			l0,0l0,0l0,0l0,0l0,0l0,0c0.056-0.002,0.144-0.017,0.262-0.042c0.036-0.008,0.074-0.019,0.115-0.027l-0.037-8.834
			C19.048,57.674,19.416,57.298,19.685,56.735z"/>
		<path fill="#FDB913" d="M23.78,64.425c0-0.055,0.001-0.111,0.001-0.166c0-0.112,0.002-0.224,0.002-0.335
			c0.004-0.112,0.008-0.222,0.011-0.331c0.002-0.111,0.007-0.222,0.015-0.333c0.003-0.055,0.006-0.109,0.009-0.164
			c0.002-0.058,0.005-0.112,0.011-0.165c0.009-0.111,0.018-0.219,0.025-0.328l0.008-0.082l0.007-0.083
			c0.006-0.053,0.012-0.109,0.018-0.162c0.016-0.171,0.037-0.339,0.059-0.51c0.045-0.009,0.092-0.019,0.137-0.031
			c0.06-0.018,0.121-0.036,0.181-0.06c0.06-0.022,0.119-0.048,0.176-0.078c0.12-0.059,0.236-0.13,0.344-0.212
			c0.056-0.041,0.109-0.085,0.161-0.133c0.052-0.049,0.105-0.1,0.155-0.152c0.399-0.426,0.639-0.956,0.723-1.504
			c-0.247-0.025-0.498,0.006-0.743,0.095c-0.062,0.022-0.122,0.05-0.182,0.08c-0.062,0.029-0.121,0.062-0.179,0.101
			c-0.113,0.078-0.228,0.169-0.333,0.276c-0.077,0.08-0.15,0.164-0.215,0.257c0.003-0.013,0.005-0.023,0.007-0.033
			c0.043-0.216,0.09-0.428,0.14-0.637c0.05-0.004,0.099-0.011,0.149-0.02c0.125-0.021,0.25-0.055,0.374-0.101
			c0.124-0.044,0.244-0.104,0.362-0.175c0.118-0.069,0.234-0.154,0.344-0.249c0.441-0.381,0.735-0.883,0.876-1.42
			c-0.121-0.023-0.246-0.036-0.371-0.034c-0.064,0.002-0.126,0.007-0.19,0.018c-0.063,0.008-0.126,0.019-0.19,0.035
			c-0.251,0.065-0.508,0.188-0.738,0.382c-0.058,0.048-0.114,0.099-0.168,0.151c-0.03,0.032-0.062,0.065-0.088,0.1
			c0.04-0.129,0.081-0.258,0.123-0.384c0.016-0.047,0.031-0.091,0.045-0.137c0.015-0.047,0.032-0.091,0.048-0.136
			c0.001-0.004,0.003-0.008,0.005-0.015c0.178,0.007,0.361-0.015,0.542-0.061c0.126-0.034,0.253-0.078,0.38-0.137
			c0.126-0.058,0.247-0.129,0.367-0.211c0.479-0.333,0.826-0.799,1.022-1.319c-0.234-0.074-0.488-0.099-0.748-0.063
			c-0.129,0.02-0.259,0.053-0.387,0.104c-0.066,0.023-0.131,0.053-0.196,0.086c-0.031,0.018-0.064,0.034-0.096,0.051
			c-0.03,0.021-0.063,0.04-0.094,0.062c-0.108,0.071-0.208,0.153-0.304,0.242c0.002-0.004,0.004-0.009,0.007-0.011
			c0.034-0.08,0.07-0.16,0.105-0.24c0.035-0.075,0.067-0.155,0.104-0.231c0.028-0.062,0.059-0.122,0.086-0.184
			c0.057,0.009,0.114,0.015,0.172,0.02c0.063,0.004,0.126,0.004,0.191-0.003c0.064-0.002,0.127-0.008,0.193-0.019
			c0.131-0.02,0.261-0.051,0.392-0.095c0.066-0.023,0.129-0.047,0.194-0.076c0.066-0.027,0.129-0.061,0.195-0.095
			c0.513-0.28,0.902-0.71,1.153-1.205c-0.227-0.1-0.474-0.147-0.736-0.14c-0.264,0.007-0.532,0.08-0.803,0.215
			c-0.123,0.065-0.238,0.144-0.348,0.228c0.052-0.092,0.104-0.183,0.156-0.271c0.077-0.131,0.151-0.257,0.225-0.377
			c0.059,0.015,0.118,0.027,0.179,0.036c0.125,0.021,0.254,0.027,0.386,0.022c0.131-0.004,0.264-0.022,0.396-0.053
			c0.134-0.031,0.272-0.071,0.405-0.128c0.54-0.226,0.973-0.611,1.275-1.079c-0.216-0.122-0.457-0.198-0.717-0.215
			c-0.13-0.011-0.266-0.004-0.404,0.017c-0.136,0.023-0.275,0.062-0.416,0.114c-0.141,0.053-0.27,0.122-0.395,0.202
			c0.041-0.06,0.081-0.112,0.116-0.165c0.043-0.062,0.087-0.117,0.125-0.17h0.001c0.091-0.049,0.181-0.102,0.27-0.16
			c0.06-0.04,0.122-0.082,0.183-0.129c0.06-0.046,0.117-0.095,0.174-0.147c0.028-0.023,0.057-0.051,0.084-0.078
			c0.027-0.025,0.056-0.055,0.084-0.08c0.055-0.057,0.107-0.116,0.158-0.177c0.025-0.029,0.051-0.062,0.075-0.093
			c0.023-0.031,0.049-0.063,0.071-0.093c0.048-0.065,0.09-0.129,0.131-0.194c0.02-0.031,0.039-0.064,0.059-0.099
			c0.019-0.031,0.036-0.065,0.055-0.099c0.034-0.067,0.068-0.133,0.099-0.203c0.029-0.067,0.056-0.135,0.079-0.204
			c0.023-0.067,0.047-0.137,0.067-0.206c0.039-0.138,0.067-0.278,0.081-0.415c-0.137,0.017-0.275,0.048-0.415,0.093
			c-0.068,0.022-0.14,0.046-0.207,0.077c-0.068,0.03-0.137,0.065-0.203,0.102c-0.067,0.038-0.135,0.078-0.2,0.122
			c-0.033,0.021-0.063,0.044-0.096,0.067c-0.031,0.023-0.062,0.051-0.094,0.074c-0.063,0.053-0.122,0.107-0.181,0.164
			c-0.029,0.027-0.061,0.057-0.087,0.089c-0.027,0.029-0.056,0.062-0.083,0.095c-0.054,0.065-0.104,0.133-0.152,0.198
			c-0.023,0.035-0.047,0.067-0.069,0.103c-0.021,0.036-0.043,0.07-0.062,0.105c-0.04,0.069-0.077,0.142-0.109,0.213
			c-0.032,0.072-0.064,0.144-0.087,0.215c-0.028,0.08-0.051,0.162-0.07,0.242c-0.013,0.02-0.026,0.036-0.041,0.055
			c-0.04,0.053-0.085,0.11-0.129,0.173c-0.025,0.036-0.054,0.072-0.08,0.112c0.028-0.122,0.051-0.249,0.064-0.375
			c0.017-0.156,0.021-0.308,0.009-0.453c-0.008-0.146-0.029-0.282-0.062-0.415c-0.067-0.264-0.182-0.5-0.336-0.693l-0.044,0.044
			l-0.042,0.044c-0.029,0.032-0.056,0.065-0.08,0.095c-0.054,0.065-0.106,0.129-0.154,0.198c-0.024,0.034-0.049,0.067-0.071,0.104
			c-0.022,0.034-0.043,0.069-0.065,0.105c-0.042,0.071-0.081,0.147-0.117,0.219c-0.073,0.15-0.132,0.306-0.176,0.464
			c-0.022,0.078-0.041,0.158-0.057,0.238c-0.014,0.08-0.023,0.16-0.03,0.242c-0.012,0.162-0.009,0.314,0.01,0.462
			c0.02,0.146,0.055,0.282,0.1,0.408c0.047,0.127,0.107,0.242,0.178,0.348c0.029,0.045,0.062,0.087,0.095,0.127
			c-0.078,0.126-0.158,0.257-0.242,0.394c-0.042,0.072-0.084,0.146-0.128,0.22c0.014-0.118,0.021-0.236,0.021-0.356
			c0.003-0.31-0.052-0.603-0.144-0.855c-0.092-0.255-0.231-0.479-0.406-0.653c-0.415,0.517-0.667,1.185-0.65,1.829
			c0.002,0.082,0.009,0.16,0.017,0.236c0.011,0.075,0.024,0.151,0.042,0.221c0.033,0.144,0.081,0.276,0.141,0.396
			c0.029,0.062,0.062,0.118,0.1,0.173c0.036,0.055,0.074,0.107,0.114,0.158c0.031,0.035,0.066,0.071,0.1,0.107
			c-0.031,0.065-0.064,0.131-0.095,0.195c-0.038,0.078-0.072,0.158-0.11,0.238c-0.03,0.067-0.062,0.135-0.092,0.205
			c0-0.114-0.005-0.224-0.017-0.338c-0.004-0.038-0.01-0.075-0.015-0.113c-0.007-0.04-0.012-0.076-0.018-0.114
			c-0.016-0.071-0.031-0.146-0.051-0.215c-0.038-0.139-0.089-0.271-0.148-0.394c-0.119-0.245-0.28-0.449-0.472-0.607
			c-0.359,0.559-0.542,1.245-0.456,1.889c0.021,0.16,0.058,0.312,0.107,0.448c0.048,0.14,0.109,0.266,0.182,0.38
			c0.101,0.157,0.218,0.288,0.351,0.396c-0.003,0.009-0.005,0.015-0.008,0.023c-0.018,0.047-0.035,0.093-0.051,0.139
			c-0.016,0.047-0.031,0.093-0.047,0.14c-0.039,0.116-0.077,0.231-0.114,0.348c-0.013-0.104-0.028-0.206-0.05-0.31
			c-0.068-0.308-0.175-0.578-0.32-0.81c-0.037-0.057-0.076-0.111-0.115-0.164c-0.04-0.053-0.082-0.102-0.126-0.147
			c-0.089-0.093-0.188-0.173-0.292-0.24c-0.037,0.071-0.072,0.149-0.104,0.226c-0.031,0.078-0.059,0.155-0.083,0.235
			c-0.024,0.08-0.047,0.16-0.065,0.24c-0.019,0.082-0.032,0.165-0.043,0.247c-0.011,0.082-0.02,0.166-0.023,0.246
			c-0.004,0.085-0.003,0.167,0,0.249c0.004,0.082,0.01,0.162,0.021,0.244c0.005,0.04,0.012,0.078,0.02,0.12
			c0.008,0.038,0.017,0.078,0.026,0.118c0.037,0.156,0.089,0.302,0.151,0.435c0.064,0.132,0.14,0.25,0.223,0.357
			c0.084,0.105,0.178,0.198,0.276,0.276c0.034,0.025,0.069,0.051,0.105,0.074c-0.054,0.215-0.104,0.432-0.148,0.653
			c-0.023-0.096-0.048-0.192-0.078-0.285c-0.048-0.149-0.106-0.286-0.175-0.417c-0.035-0.063-0.068-0.124-0.106-0.184
			c-0.039-0.059-0.078-0.115-0.12-0.168c-0.167-0.213-0.371-0.382-0.591-0.495c-0.058,0.155-0.103,0.315-0.136,0.479
			c-0.019,0.08-0.028,0.165-0.038,0.247s-0.016,0.164-0.021,0.249c-0.003,0.082-0.001,0.164,0.004,0.246
			c0.004,0.082,0.013,0.164,0.024,0.247c0.022,0.16,0.063,0.322,0.116,0.472c0.026,0.076,0.056,0.151,0.088,0.219
			c0.033,0.07,0.069,0.135,0.109,0.198c0.076,0.124,0.162,0.236,0.256,0.333c0.047,0.049,0.096,0.093,0.148,0.133
			c0.052,0.042,0.104,0.08,0.159,0.114c0.033,0.021,0.067,0.037,0.102,0.057c-0.023,0.177-0.047,0.355-0.067,0.535
			c-0.006,0.057-0.013,0.111-0.019,0.169l-0.01,0.082l-0.007,0.086c-0.011,0.111-0.021,0.226-0.031,0.34
			c-0.005,0.057-0.008,0.111-0.013,0.17c-0.002,0.058-0.006,0.114-0.01,0.171c-0.008,0.114-0.016,0.228-0.019,0.344
			c-0.006,0.113-0.01,0.229-0.014,0.344c-0.002,0.113-0.004,0.231-0.006,0.345c-0.001,0.06-0.002,0.114-0.002,0.173l0.001,0.173
			c0.001,0.116,0.001,0.232,0.004,0.348c0,0.018,0.001,0.036,0.001,0.053c0.235-0.109,0.476-0.223,0.723-0.341
			c0-0.021-0.001-0.045-0.001-0.065L23.78,64.425z"/>
	</g>
	<path fill="#FDB913" d="M11.779,21.593c0,0,0.463-0.314,0.747-1.075c0.12-0.38,0.617-1.839-0.488-2.878
		c0.257,1.814-0.938,1.442-1.255,2.116c-0.298,0.688,0.503,1.837,0.503,1.837H11.779z"/>
	<path fill="#FDB913" d="M25.303,19.668c-0.55-0.19-1.187-0.088-1.59,0.265c-0.427,0.459-0.479,1.012-0.097,1.478
		c0.018,0.021,0.033,0.029,0.05,0.047c0.029,0.035,0.061,0.064,0.096,0.091c0.025,0.021,0.051,0.038,0.075,0.051
		c0.039,0.022,0.079,0.035,0.121,0.045c0.017,0.005,0.031,0.009,0.047,0.011c0.035,0.006,0.067,0.021,0.103,0.021
		c0.319,0,0.577-0.259,0.577-0.58c0-0.283-0.205-0.507-0.473-0.558c0.007-0.004,0.522-0.299,0.875,0.009
		c0.914,0.701,0.473,1.987-0.428,2.653c-0.938,0.692-2.356,0.752-2.356,0.752c-1.66-0.023-3-1.674-3.319-2.79
		c-0.108-0.283-0.045-0.818-0.045-1.167c0-0.455-0.121-0.823-0.573-0.823h-0.109c-0.452,0-0.573,0.368-0.573,0.823
		c0,0.35,0.062,0.885-0.045,1.167c-0.319,1.116-1.799,3.025-3.32,2.79c-0.186-0.058-1.378-0.49-1.729-1.354h-1.276
		c0,0.003,0.002,0.004,0.004,0.006H10.36v1.08h1.661c1.947,2.445,5.368,3.727,5.35,4.774c0.064,1.584-1.663,1.782-1.663,1.782v0.658
		l5.125-0.008v-0.65c0,0-1.727-0.199-1.664-1.782c-0.005-0.376,0.434-0.711,1.09-1.091c1.535-0.887,4.509-2.537,5.305-3.373
		C26.632,22.878,27.45,20.691,25.303,19.668z"/>
</g>
</svg>
